<svg width="27" height="26" viewBox="0 0 27 26" fill="none" xmlns="http://www.w3.org/2000/svg">
<path d="M22.0395 3.43706C24.5058 5.68327 26.0371 8.91848 26.2025 12.2527C26.3599 15.8642 25.1184 19.2142 22.6908 21.8796C20.8781 23.8191 18.4858 25.1296 15.8944 25.6865C15.8409 25.6981 15.7874 25.7097 15.7322 25.7216C14.7594 25.9145 13.7724 25.9545 12.7836 25.9539C12.6705 25.9542 12.5575 25.9547 12.4445 25.9551C12.1417 25.9562 11.8388 25.9565 11.536 25.9565C11.3463 25.9566 11.1565 25.9569 10.9668 25.9572C10.3033 25.9583 9.63988 25.9588 8.97643 25.9587C8.36002 25.9587 7.74363 25.9599 7.12723 25.9618C6.59557 25.9634 6.06391 25.9641 5.53225 25.964C5.21573 25.964 4.89922 25.9643 4.58271 25.9656C4.28555 25.9668 3.98842 25.9668 3.69127 25.9659C3.58268 25.9658 3.47409 25.9661 3.36551 25.9668C2.62528 25.9715 1.96709 25.9288 1.36531 25.442C0.98164 25.0474 0.75696 24.5363 0.750141 23.9874C0.748424 23.9254 0.746707 23.8633 0.744938 23.7994C0.835187 23.0736 1.25555 22.3864 1.56949 21.7344C2.09215 20.7635 2.09215 20.7635 2.10488 19.7C2.00035 19.4472 1.87221 19.2097 1.7416 18.9696C0.132207 15.8755 -0.131225 12.3196 0.886608 8.99076C1.93431 5.72915 4.28926 2.99873 7.32515 1.43136C12.2053 -1.02185 17.9819 -0.182039 22.0395 3.43706ZM8.39489 9.57562C8.1753 9.83341 8.11456 10.072 8.07253 10.4022C8.12776 10.852 8.30078 11.1686 8.65127 11.454C8.89192 11.6066 9.10557 11.6624 9.38902 11.6648C9.45168 11.6656 9.51434 11.6664 9.5789 11.6672C9.64601 11.6673 9.71312 11.6674 9.78227 11.6676C9.85192 11.668 9.92157 11.6684 9.99333 11.6688C10.1406 11.6694 10.2878 11.6697 10.435 11.6697C10.6595 11.6699 10.8838 11.6721 11.1083 11.6744C11.2516 11.6748 11.3948 11.675 11.5381 11.6751C11.6049 11.676 11.6716 11.6769 11.7404 11.6778C12.1983 11.6751 12.5468 11.617 12.8858 11.2818C12.9133 11.2413 12.9409 11.2008 12.9693 11.1591C13.0122 11.0981 13.0122 11.0981 13.0561 11.0358C13.242 10.7224 13.2247 10.3647 13.185 10.0125C13.0431 9.64705 12.7923 9.41631 12.4622 9.214C12.119 9.07882 11.751 9.09454 11.3882 9.09409C11.3322 9.09388 11.2762 9.09368 11.2185 9.09348C11.1004 9.09317 10.9823 9.09303 10.8642 9.09304C10.6848 9.09291 10.5055 9.0918 10.3261 9.09066C10.2109 9.09048 10.0957 9.09036 9.98046 9.0903C9.92747 9.08987 9.87447 9.08943 9.81987 9.08898C9.23902 9.09111 8.82124 9.16416 8.39489 9.57562ZM8.29201 14.869C8.08199 15.1854 8.0525 15.5131 8.12078 15.882C8.23057 16.261 8.49213 16.5308 8.82558 16.7332C9.2542 16.8745 9.68849 16.8715 10.1351 16.8699C10.2473 16.8702 10.2473 16.8702 10.3618 16.8706C10.5655 16.871 10.7691 16.8709 10.9728 16.8705C11.1868 16.8702 11.4008 16.8705 11.6149 16.8707C11.9742 16.8709 12.3335 16.8706 12.6928 16.87C13.1071 16.8694 13.5214 16.8696 13.9356 16.8703C14.2925 16.8708 14.6495 16.8709 15.0064 16.8706C15.219 16.8704 15.4316 16.8704 15.6443 16.8708C15.8815 16.8712 16.1187 16.8706 16.3559 16.8699C16.4255 16.8702 16.4952 16.8704 16.5669 16.8707C17.1894 16.8674 17.6369 16.8261 18.0961 16.3829C18.3157 16.1251 18.3764 15.8866 18.4185 15.5563C18.3632 15.1065 18.1902 14.79 17.8397 14.5045C17.5878 14.3447 17.3694 14.2961 17.0729 14.2951C17.0029 14.2946 16.9328 14.2941 16.8607 14.2935C16.7463 14.2936 16.7463 14.2936 16.6296 14.2937C16.548 14.2933 16.4664 14.2929 16.3848 14.2925C16.1636 14.2914 15.9425 14.2911 15.7213 14.291C15.5829 14.2909 15.4446 14.2907 15.3063 14.2904C14.8232 14.2892 14.3402 14.2888 13.8572 14.2888C13.4076 14.2889 12.9581 14.2876 12.5085 14.2857C12.122 14.2841 11.7355 14.2835 11.3489 14.2836C11.1183 14.2836 10.8877 14.2833 10.6571 14.282C10.4401 14.2808 10.2231 14.2808 10.0061 14.2817C9.88901 14.2819 9.77196 14.2809 9.65492 14.2798C9.07021 14.284 8.66401 14.3939 8.29201 14.869Z" fill="#5B32A1"/>
</svg>
