<svg width="31" height="32" viewBox="0 0 31 32" fill="none" xmlns="http://www.w3.org/2000/svg">
<path d="M8.58008 26.9561C8.93334 26.6671 9.26954 26.583 9.71094 26.7012C9.97686 26.8391 10.131 26.9713 10.2549 27.2451C10.3416 27.5453 10.3033 27.8028 10.1943 28.0918C10.0935 28.2254 10.0034 28.3301 9.88477 28.4443C9.85347 28.4759 9.82228 28.5075 9.79004 28.54C9.6868 28.6437 9.5821 28.7464 9.47754 28.8486C9.40505 28.9208 9.33211 28.9932 9.25977 29.0654C9.10847 29.2162 8.95704 29.3669 8.80469 29.5166C8.60946 29.7085 8.4145 29.9014 8.2207 30.0947C8.07155 30.2434 7.92208 30.3918 7.77246 30.54C7.70075 30.6111 7.62922 30.6827 7.55762 30.7539C7.45755 30.8532 7.35646 30.9521 7.25586 31.0508C7.22651 31.08 7.19723 31.1095 7.16699 31.1396C6.92061 31.3799 6.74008 31.4946 6.39453 31.5C6.10409 31.4931 5.94283 31.4345 5.72266 31.2354C5.47029 30.963 5.45234 30.7314 5.44824 30.376C5.51509 30.0259 5.77673 29.7753 6.02051 29.5293C6.04927 29.5001 6.07779 29.4705 6.10742 29.4404C6.20182 29.3449 6.29669 29.2494 6.3916 29.1543C6.45793 29.0876 6.52451 29.0209 6.59082 28.9541C6.72965 28.8145 6.86957 28.6753 7.00879 28.5361C7.18651 28.3584 7.36337 28.1798 7.54004 28.001C7.67667 27.863 7.81384 27.7252 7.95117 27.5879C8.01664 27.5223 8.0824 27.4557 8.14746 27.3896C8.23858 27.2973 8.33078 27.2056 8.42285 27.1143C8.47478 27.0621 8.52658 27.0098 8.58008 26.9561ZM5.84082 24.2705C6.26028 23.9028 6.69073 23.8224 7.19141 24.0869C7.43851 24.2939 7.51687 24.4444 7.58789 24.7588C7.61474 25.0705 7.52051 25.2988 7.3291 25.5391C7.04849 25.8578 6.75438 26.1607 6.4541 26.4609C6.37608 26.5393 6.3765 26.5402 6.29688 26.6201L5.60645 27.3105C5.29707 27.6206 4.98741 27.9305 4.67773 28.2402C4.38967 28.5283 4.10202 28.8169 3.81445 29.1055C3.56684 29.3539 3.31932 29.6025 3.07129 29.8506C2.92343 29.9985 2.77546 30.1467 2.62793 30.2949C2.46367 30.4599 2.29858 30.6246 2.13379 30.7891C2.06121 30.8622 2.06151 30.8628 1.9873 30.9375C1.94226 30.9823 1.89699 31.0271 1.85059 31.0732C1.81178 31.1121 1.7724 31.1504 1.73242 31.1904C1.41407 31.4689 1.17329 31.5092 0.759766 31.498C0.523846 31.4693 0.394441 31.3984 0.222656 31.2354C0.0656687 31.0138 0.0131948 30.853 0.0078125 30.582C0.00524162 30.523 0.00264878 30.4631 0 30.4023C0.107761 29.9001 0.60028 29.5104 0.951172 29.1611C1.00487 29.1072 1.05893 29.0536 1.11426 28.998C1.26056 28.8512 1.40694 28.704 1.55371 28.5576L3.68457 26.4268C3.94085 26.1699 4.19739 25.9127 4.4541 25.6562C4.60719 25.5033 4.76029 25.3495 4.91309 25.1963C5.08324 25.0257 5.2541 24.8556 5.4248 24.6855L5.71875 24.3916C5.75888 24.3515 5.79948 24.3118 5.84082 24.2705ZM22.6445 23.5576C22.6581 24.1027 22.6226 24.6426 22.5801 25.1855C22.5688 25.3329 22.5589 25.4805 22.5488 25.6279C22.472 26.6632 22.2613 27.3874 21.4639 28.0889C21.2375 28.2768 20.9969 28.4374 20.75 28.5967C20.6708 28.6485 20.6705 28.6483 20.5898 28.7012C20.4189 28.8131 20.2475 28.9249 20.0762 29.0361C19.8973 29.1529 19.7178 29.2698 19.5391 29.3867C19.419 29.4653 19.2988 29.5436 19.1787 29.6221C18.8014 29.8687 18.4258 30.1184 18.0518 30.3701C18.0058 30.401 17.9595 30.432 17.9121 30.4639C17.7391 30.5802 17.5661 30.6964 17.3936 30.8135C17.2776 30.8921 17.1612 30.9707 17.0449 31.0488C16.9807 31.0923 16.9167 31.1359 16.8506 31.1807C16.3512 31.4843 15.9141 31.5323 15.332 31.4766C14.9419 31.3739 14.5795 31.16 14.3496 30.8223C14.0743 30.322 14.0105 29.793 13.9268 29.2363C13.9113 29.139 13.8955 29.0417 13.8799 28.9443C13.8093 28.4998 13.7478 28.056 13.7002 27.6084C13.9722 27.5104 14.2464 27.4411 14.5273 27.375C17.3851 26.6964 20.0324 25.4026 22.4062 23.6836C22.5841 23.5579 22.5841 23.5576 22.6445 23.5576ZM6.62891 14.7314C6.79896 14.809 6.92365 14.8895 7.05566 15.0215L7.39941 15.3652C7.53586 15.5012 7.6716 15.638 7.80762 15.7744C7.90528 15.8719 8.00385 15.9689 8.10156 16.0664C8.36694 16.3313 8.63158 16.5969 8.89648 16.8623C9.17345 17.1397 9.4513 17.4172 9.72852 17.6943C10.2236 18.1894 10.7182 18.6852 11.2129 19.1807C11.6618 19.6302 12.1111 20.0793 12.5605 20.5283C13.0823 21.0496 13.6047 21.571 14.126 22.0928C14.402 22.3691 14.6778 22.6459 14.9541 22.9219L16.0186 23.9863C16.1485 24.116 16.2778 24.2468 16.4072 24.377C16.4456 24.4151 16.4848 24.4529 16.5244 24.4922C16.7825 24.7527 16.7822 24.753 16.7822 24.8877C13.4104 26.3049 13.4103 26.3045 12.2373 25.8652C11.8041 25.6618 11.4985 25.3882 11.1641 25.0498C11.1069 24.993 11.0495 24.9365 10.9922 24.8799C10.8378 24.7268 10.6845 24.5722 10.5312 24.418C10.37 24.2559 10.2077 24.095 10.0459 23.9336C9.77425 23.6624 9.50308 23.3903 9.23242 23.1182C8.92051 22.8045 8.60751 22.4917 8.29395 22.1797C8.02371 21.9107 7.75353 21.6411 7.48438 21.3711C7.32417 21.2104 7.16387 21.0496 7.00293 20.8896C6.85151 20.7391 6.7009 20.5874 6.55078 20.4355C6.47003 20.3542 6.38815 20.274 6.30664 20.1934C5.89623 19.7757 5.55858 19.3302 5.56055 18.7217C5.58708 17.4371 6.03188 15.8631 6.62891 14.7314ZM3.25 21.4521C3.67754 21.1326 4.11942 21.157 4.5625 21.4229C4.75898 21.6306 4.86908 21.8302 4.88184 22.1211C4.84929 22.5927 4.60127 22.8804 4.27344 23.209C4.22978 23.253 4.22907 23.253 4.18457 23.2979C4.08933 23.3937 3.99415 23.4896 3.89844 23.585L1.85352 25.6299C1.77493 25.7084 1.77445 25.7081 1.69434 25.7881C1.40861 26.043 1.18284 26.0627 0.808594 26.0547C0.496159 26.0184 0.343032 25.8606 0.139648 25.6357C0.00978769 25.3659 -0.0199836 25.1215 0.0410156 24.8271C0.199176 24.5668 0.378485 24.3534 0.591797 24.1367C0.62167 24.1062 0.651839 24.0753 0.682617 24.0439C0.780526 23.9443 0.879089 23.8452 0.977539 23.7461C1.01139 23.7119 1.04521 23.6768 1.08008 23.6416C1.25884 23.461 1.43779 23.2806 1.61719 23.1006C1.80199 22.9151 1.98652 22.7289 2.16992 22.542C2.31168 22.3979 2.45388 22.2544 2.59668 22.1113C2.66459 22.043 2.73251 21.9742 2.7998 21.9053C2.89434 21.8086 2.98997 21.7124 3.08594 21.6172C3.13996 21.5627 3.19434 21.5083 3.25 21.4521ZM29.1328 0.5C29.7081 0.505332 30.1532 0.611079 30.5781 1.01074C30.8699 1.34357 30.9907 1.72195 30.9941 2.15918C30.9947 2.21977 30.9955 2.28035 30.9961 2.34277C30.9965 2.4413 30.9967 2.4416 30.9971 2.54199C30.9975 2.61056 30.9976 2.67935 30.998 2.75C30.9991 2.97298 30.9999 3.19596 31 3.41895C31 3.49459 31 3.57051 31 3.64844C30.999 4.77522 30.9726 5.87742 30.8037 6.99316C30.7933 7.06415 30.7822 7.13585 30.7715 7.20898C30.0995 11.7068 28.2751 15.6797 25.1514 18.9883C25.0575 19.0886 24.9652 19.1902 24.873 19.292C24.5841 19.6105 24.2954 19.9199 23.9648 20.1963C23.844 20.3008 23.7342 20.4126 23.623 20.5273C23.3368 20.817 23.0229 21.0675 22.7051 21.3213C22.6357 21.3779 22.5663 21.4344 22.4971 21.4912C21.2643 22.4976 19.9341 23.3459 18.5352 24.1016C18.2272 23.8436 17.9386 23.5737 17.6553 23.2891C17.5893 23.2231 17.5886 23.2233 17.5215 23.1562C17.3749 23.0097 17.2284 22.8626 17.082 22.7158C16.9767 22.6104 16.871 22.5048 16.7656 22.3994C16.5391 22.1728 16.3123 21.9456 16.0859 21.7188C15.7587 21.3909 15.431 21.063 15.1035 20.7354C14.5721 20.2037 14.0409 19.6715 13.5098 19.1396C12.994 18.6232 12.4778 18.1071 11.9619 17.5908L11.3857 17.0146C10.0619 15.6898 8.73855 14.3643 7.41504 13.0391C7.49083 12.8857 7.5665 12.7323 7.64258 12.5791C7.66379 12.5361 7.68517 12.4925 7.70703 12.4482C7.89639 12.0676 8.10817 11.7047 8.33594 11.3457C8.37492 11.2838 8.41393 11.2219 8.4541 11.1582C8.76237 10.6746 9.09069 10.2113 9.44531 9.76074C9.52932 9.65384 9.61269 9.54645 9.69531 9.43848C10.2252 8.74982 10.7825 8.08048 11.4062 7.47461C11.518 7.3628 11.6193 7.24717 11.7207 7.12598C11.9984 6.80254 12.3181 6.52271 12.6338 6.2373C12.7264 6.15332 12.8184 6.06825 12.9102 5.9834C13.2623 5.65864 13.6224 5.35079 14.002 5.05859C14.036 5.03228 14.0704 5.0066 14.1055 4.97949C17.1876 2.60214 20.675 1.26787 24.5176 0.706055C24.5835 0.69607 24.6499 0.686068 24.7178 0.675781C25.8328 0.513972 26.9476 0.50587 28.0723 0.501953C28.1463 0.501473 28.2206 0.501471 28.2969 0.500977C28.5107 0.499911 28.7246 0.500183 28.9385 0.500977C29.0026 0.500619 29.0668 0.500369 29.1328 0.5ZM7.95801 8.86719C7.75317 9.19353 7.54607 9.51752 7.3291 9.83594C5.79082 12.1039 4.59322 14.6552 4.06836 17.3555C4.05783 17.4072 4.04698 17.4594 4.03613 17.5127C4.02751 17.558 4.01962 17.6037 4.01074 17.6504C3.99737 17.6846 3.98351 17.7186 3.96973 17.7539C3.72818 17.8344 3.52425 17.7879 3.27832 17.75C3.22785 17.7424 3.177 17.7344 3.125 17.7266C3.01803 17.7104 2.91062 17.6943 2.80371 17.6777C2.64215 17.6528 2.48011 17.6291 2.31836 17.6055C0.757469 17.3701 0.757129 17.3698 0.267578 16.7305C0.0816018 16.4049 0.0213032 16.1181 0.0146484 15.7441C0.0122367 15.6704 0.0102972 15.5965 0.0078125 15.5205C0.049338 14.9525 0.487867 14.4369 0.796875 13.9834C0.893116 13.841 0.989026 13.6983 1.08496 13.5557C1.11123 13.5167 1.13798 13.4777 1.16504 13.4375C1.40536 13.08 1.64175 12.7196 1.87793 12.3594C1.93589 12.271 1.93593 12.2709 1.99512 12.1807C2.15179 11.9419 2.30857 11.7029 2.46484 11.4639C2.57548 11.2947 2.68689 11.125 2.79785 10.9561C2.8304 10.9061 2.86296 10.8561 2.89648 10.8047C3.36965 10.0855 3.87553 9.32947 4.75488 9.10938C5.09599 9.04997 5.43834 9.01728 5.7832 8.98828C5.8459 8.98284 5.90904 8.97729 5.97363 8.97168C6.1806 8.95395 6.38767 8.93756 6.59473 8.9209C6.66044 8.9156 6.72625 8.90976 6.79395 8.9043C7.18273 8.87488 7.56814 8.86033 7.95801 8.86719ZM21.4219 5.75977C19.9983 5.74072 18.7195 6.27748 17.7734 7.35352C17.0345 8.29608 16.6467 9.41998 16.7217 10.6211C16.8861 11.9164 17.4519 12.9742 18.4482 13.832C19.1468 14.3686 20.0089 14.7367 20.8916 14.792C20.9389 14.7952 20.9864 14.7985 21.0352 14.8018C22.315 14.8456 23.51 14.3503 24.4443 13.4854C25.3227 12.5434 25.7697 11.3885 25.7549 10.1035C25.7157 9.0139 25.3101 8.04531 24.5781 7.23535C24.5403 7.19262 24.5028 7.1495 24.4639 7.10547C23.6859 6.27489 22.5488 5.79836 21.4219 5.75977ZM19.502 8.08203C20.4829 7.32747 21.8819 7.31462 22.8809 8.04102C23.4601 8.5068 23.7999 9.04514 23.9736 9.77441C24.047 10.5885 23.9367 11.3296 23.4287 11.9941C22.8907 12.6165 22.2367 12.9755 21.4141 13.0518C20.6569 13.0807 19.8602 12.818 19.2998 12.2998C18.7305 11.6873 18.4507 10.9578 18.4619 10.124C18.5265 9.2889 18.8987 8.64795 19.502 8.08203Z" fill="black"/>
</svg>
