<svg width="31" height="32" viewBox="0 0 31 32" fill="none" xmlns="http://www.w3.org/2000/svg">
<path d="M12.9963 0.500349C13.0807 0.500514 13.0807 0.500514 13.1668 0.500683C13.9773 0.503359 14.7644 0.527094 15.5589 0.700578C15.6352 0.716138 15.6352 0.716138 15.7131 0.732012C17.4609 1.09164 19.1209 1.78144 20.5783 2.81621C20.618 2.8439 20.6578 2.87159 20.6987 2.90012C23.3843 4.78146 25.285 7.69813 25.9128 10.9177C26.047 11.7108 26.1063 12.4963 26.1041 13.2999C26.1041 13.3702 26.1041 13.3702 26.104 13.4419C26.0942 16.5263 24.9314 19.5933 22.8159 21.8569C22.8966 22.0368 22.9847 22.1615 23.1258 22.2989C23.1584 22.3311 23.191 22.3633 23.2245 22.3964C23.2994 22.4656 23.3748 22.5342 23.4526 22.6001C23.8194 22.9119 24.1573 23.2512 24.4963 23.5924C24.604 23.7009 24.7119 23.8091 24.8199 23.9174C25.0879 24.186 25.3555 24.455 25.6231 24.7239C25.85 24.9519 26.077 25.1797 26.3042 25.4074C26.4097 25.5133 26.5151 25.6194 26.6205 25.7255C26.9144 26.0206 27.2098 26.3091 27.5268 26.5796C27.8292 26.8486 28.1116 27.1402 28.3979 27.4262C28.4688 27.4969 28.5397 27.5675 28.6106 27.6382C28.7582 27.7853 28.9056 27.9326 29.053 28.08C29.2418 28.2687 29.4311 28.457 29.6204 28.6452C29.7665 28.7906 29.9123 28.9362 30.058 29.0819C30.1277 29.1515 30.1975 29.221 30.2674 29.2903C30.3648 29.3871 30.4618 29.4842 30.5587 29.5815C30.6139 29.6366 30.6691 29.6917 30.726 29.7484C30.9847 30.0361 31.0071 30.2579 30.9986 30.6363C30.9693 30.8974 30.9028 31.0191 30.738 31.2261C30.4379 31.4648 30.2 31.4955 29.8214 31.5C29.3642 31.4146 29.0637 31.0878 28.752 30.7678C28.7081 30.7235 28.6642 30.6792 28.619 30.6336C28.4795 30.4928 28.3407 30.3514 28.2019 30.2098C28.0632 30.0691 27.9243 29.9285 27.7853 29.788C27.6992 29.7009 27.6132 29.6135 27.5275 29.526C27.3392 29.335 27.1494 29.1504 26.9453 28.9763C26.6256 28.7008 26.3311 28.3996 26.0339 28.1003C25.9261 27.9918 25.8182 27.8836 25.7102 27.7753C25.4423 27.5067 25.1746 27.2377 24.907 26.9688C24.6801 26.7408 24.4531 26.513 24.226 26.2853C24.1204 26.1794 24.015 26.0733 23.9096 25.9672C23.6087 25.6651 23.3063 25.3687 22.9817 25.0917C22.8082 24.9409 22.6469 24.7783 22.4851 24.615C22.4509 24.5807 22.4167 24.5464 22.3815 24.5111C22.2741 24.4035 22.167 24.2957 22.0599 24.1879C21.9864 24.1141 21.9128 24.0403 21.8393 23.9665C21.6607 23.7873 21.4823 23.608 21.304 23.4285C21.0554 23.523 20.8626 23.639 20.6463 23.7949C19.1697 24.8355 17.5588 25.508 15.8008 25.9068C15.7447 25.9198 15.6886 25.9327 15.6308 25.9461C14.0237 26.3019 12.1509 26.3138 10.5395 25.9672C10.4902 25.9575 10.4409 25.9478 10.39 25.9378C7.1658 25.2975 4.20902 23.4009 2.31502 20.7084C2.29088 20.6743 2.26673 20.6402 2.24185 20.6051C0.90895 18.7106 0.0262926 16.3485 0.00258669 14.0161C0.00199442 13.9674 0.00140214 13.9188 0.000791914 13.8686C-0.0340572 10.2601 1.07989 7.03885 3.61617 4.41922C3.68622 4.34813 3.75646 4.27721 3.82688 4.20648C3.86052 4.17261 3.89416 4.13875 3.92882 4.10386C4.77109 3.26615 5.7377 2.61072 6.77799 2.0428C6.86118 1.99727 6.94406 1.95116 7.02645 1.9042C8.16583 1.25484 9.54975 0.838826 10.8419 0.640132C10.936 0.624448 10.936 0.624448 11.032 0.608447C11.6878 0.508385 12.3341 0.497661 12.9963 0.500349ZM4.7529 6.19366C4.68495 6.27582 4.61837 6.35911 4.55258 6.443C4.51468 6.49032 4.51468 6.49032 4.47601 6.5386C3.42693 7.85519 2.67642 9.33523 2.30369 10.9803C2.28963 11.0422 2.28963 11.0422 2.27529 11.1054C2.11906 11.8332 2.04954 12.552 2.05045 13.2961C2.05044 13.3378 2.05043 13.3794 2.05043 13.4223C2.05239 14.2161 2.14282 14.9767 2.31502 15.7518C2.32407 15.7946 2.33311 15.8374 2.34243 15.8815C2.73949 17.7249 3.7737 19.3932 5.04393 20.7613C5.07789 20.7979 5.11185 20.8346 5.14684 20.8723C5.55 21.299 5.9918 21.6632 6.46886 22.0042C6.54042 22.0554 6.54042 22.0554 6.61343 22.1076C9.07669 23.8543 12.041 24.4551 15.0116 23.9881C16.6229 23.7092 18.1725 23.0723 19.4898 22.0987C19.5539 22.0516 19.6181 22.0045 19.6842 21.9561C20.3005 21.4967 20.8728 20.9989 21.3645 20.4062C21.411 20.3529 21.4575 20.2996 21.5055 20.2447C22.5198 19.0673 23.2367 17.6653 23.6625 16.1749C23.6782 16.1214 23.6939 16.0679 23.7101 16.0128C24.3885 13.6381 24.0929 10.9414 22.9973 8.73997C22.9765 8.69786 22.9558 8.65574 22.9344 8.61235C22.284 7.30381 21.3931 6.12131 20.2759 5.17362C20.2365 5.14019 20.1971 5.10675 20.1566 5.0723C15.6872 1.33804 9.14917 1.85388 4.7529 6.19366Z" fill="black"/>
</svg>
